<?xml version="1.0" encoding="utf-8"?>
<!-- Generator: Adobe Illustrator 25.4.1, SVG Export Plug-In . SVG Version: 6.00 Build 0)  -->
<svg version="1.2" baseProfile="tiny" id="Layer_1" xmlns="http://www.w3.org/2000/svg" xmlns:xlink="http://www.w3.org/1999/xlink"
	 x="0px" y="0px" viewBox="0 0 79.5 75" overflow="visible" xml:space="preserve">
<path fill="#F7971D" d="M75.8,25.3H3.7c-2.2,0.3-3.5,1.6-3.7,4.1v41.4c0.2,2.5,1.4,3.9,3.7,4.1h72.2c2.2-0.3,3.5-1.6,3.7-4.1V29.4
	C79.3,26.9,78.1,25.5,75.8,25.3"/>
<path d="M72.2,44.6c-1.2-1.4-2.9-2.2-4.7-2.6c-0.5-0.1-1.1-0.2-1.8-0.3c-2.4-0.2-5.4,0.7-6.8,1.9l0.3-9.7h-5.8v30h5.4v-1.7
	c1.2,1,3.2,2.1,6.2,2.1c0.1,0,0.2,0,0.3,0c0.1,0,0.2,0,0.2,0c2.5,0,4.7-1,6.4-3c1.8-2,2.7-4.9,2.7-8.6
	C74.8,49.2,73.9,46.5,72.2,44.6 M67.6,58.2c-0.9,1.1-2,1.6-3.2,1.6c-1.7,0-3-0.8-4-2.3c-0.7-1.1-1.1-2.7-1.1-5
	c0-2.2,0.5-3.8,1.4-4.9c0.9-1.1,2.1-1.6,3.4-1.6c1.4,0,2.6,0.5,3.5,1.6c0.9,1.1,1.4,2.9,1.4,5.4C68.9,55.4,68.5,57.2,67.6,58.2
	 M44.3,51.3c0,3.1-0.1,5.1-0.4,5.9c-0.3,0.8-0.8,1.5-1.6,2c-0.8,0.5-1.7,0.8-2.6,0.8c-0.9,0-1.6-0.2-2.1-0.6s-0.9-1-1.2-1.6
	c-0.2-0.7-0.3-2.6-0.3-5.6v-10h-5.8v13.8c0,2,0.3,3.7,0.8,4.8c0.5,1.2,1.4,2.1,2.5,2.7c1.2,0.6,2.5,1,3.9,1c0.2,0,0.4,0,0.7,0
	c0,0,0,0,0,0c3.7-0.1,5.6-1.8,6.5-2.9v2.4H50V42.2h-5.8L44.3,51.3z M25.5,44.3c-0.5-0.8-1.3-1.4-2.4-1.9c-1-0.4-2-0.7-3.2-0.7
	c0,0,0,0-0.1,0c-2.4-0.1-5.5,0.6-7,2v-9.8H7.1v30h5.8V53c0-1.8,0.2-3.2,0.5-4.2c0.3-0.9,0.9-1.6,1.7-2.1c0.8-0.5,1.6-0.7,2.6-0.7
	c0.8,0,1.5,0.2,2.1,0.5c0.6,0.4,0.9,0.9,1.2,1.5c0.2,0.6,0.3,2.1,0.3,4.3v11.5h5.8V51.2c0-2-0.1-3.4-0.3-4.3
	C26.4,45.9,26,45.1,25.5,44.3"/>
<path d="M74.6,9.9c-0.2-0.7-0.5-1.3-0.9-1.9c-0.4-0.6-1-1-1.9-1.4c-0.8-0.4-1.7-0.5-2.7-0.5c-1.8-0.1-4.7,0.6-5.6,2V6.5h-4.2v17h4.5
	v-7.7c0-1.9,0.1-3.2,0.3-3.9c0.2-0.7,0.7-1.3,1.3-1.7c0.6-0.4,1.3-0.6,2.1-0.6c0.6,0,1.1,0.2,1.6,0.4c0.4,0.3,0.7,0.7,0.9,1.3
	c0.2,0.5,0.3,1.7,0.3,3.6v8.7h4.5V12.9C74.8,11.6,74.7,10.6,74.6,9.9 M53.1,6.2c-1.3,0.2-2.6,1.2-3.2,1.9V6.5h-4.2v17h4.5v-5.3
	c0-2.9,0.1-4.8,0.4-5.7c0.3-0.9,0.6-1.5,1-1.9c0.4-0.3,1-0.5,1.6-0.5c0.7,0,1.4,0.2,2.1,0.7l1.4-3.9c-1-0.6-1.9-0.8-3-0.8
	C53.6,6.1,53.3,6.1,53.1,6.2 M34.8,6.1c-1.7,0-3.2,0.4-4.5,1.1c-1.4,0.7-2.4,1.8-3.1,3.2c-0.7,1.4-1.1,2.8-1.1,4.3
	c0,2,0.4,3.6,1.1,5c0.7,1.4,1.8,2.4,3.2,3.1c1.4,0.7,2.9,1.1,4.5,1.1c2.5,0,4.6-0.8,6.3-2.5c1.7-1.7,2.5-3.8,2.5-6.4
	c0-2.6-0.8-4.7-2.5-6.3C39.4,6.9,37.3,6.1,34.8,6.1 M37.7,18.9c-0.8,0.9-1.8,1.3-3,1.3c-1.2,0-2.2-0.4-3-1.3
	C31,18,30.6,16.7,30.6,15s0.4-3,1.2-3.9c0.8-0.9,1.8-1.3,3-1.3c1.2,0,2.2,0.4,3,1.3c0.8,0.9,1.2,2.2,1.2,3.8
	C38.9,16.7,38.5,18,37.7,18.9 M20.3,0.4C19.4,0.1,17.5,0,14.6,0H7v23.5h4.7v-8.9h3.1c2.1,0,3.8-0.1,4.9-0.3c0.8-0.2,1.7-0.6,2.5-1.1
	s1.5-1.3,2-2.3c0.5-1,0.8-2.2,0.8-3.6c0-1.9-0.5-3.4-1.4-4.6C22.8,1.5,21.6,0.7,20.3,0.4 M19.6,9.1c-0.4,0.5-0.9,0.9-1.5,1.2
	s-1.9,0.4-3.7,0.4h-2.6V4h2.3c1.7,0,2.8,0.1,3.4,0.2c0.8,0.1,1.4,0.5,1.9,1c0.5,0.6,0.8,1.3,0.8,2.1C20.1,8,20,8.6,19.6,9.1"/>
</svg>
