<?xml version="1.0" standalone="no"?>
<!DOCTYPE svg PUBLIC "-//W3C//DTD SVG 20010904//EN"
 "http://www.w3.org/TR/2001/REC-SVG-20010904/DTD/svg10.dtd">
<svg version="1.0" xmlns="http://www.w3.org/2000/svg"
 width="200.000000pt" height="200.000000pt" viewBox="0 0 200.000000 200.000000"
 preserveAspectRatio="xMidYMid meet">
<metadata>
Created by potrace 1.14, written by Peter Selinger 2001-2017
</metadata>
<g transform="translate(0.000000,200.000000) scale(0.100000,-0.100000)"
fill="#000000" stroke="none">
<path d="M414 1602 c-10 -10 -14 -45 -14 -132 0 -104 2 -120 18 -128 28 -15
657 -13 678 2 14 11 17 31 18 121 1 60 -4 118 -9 129 -10 21 -17 21 -344 22
-271 0 -336 -2 -347 -14z"/>
<path d="M1274 1603 c-10 -11 -14 -43 -14 -128 0 -150 -4 -146 150 -143 65 2
122 7 127 11 4 5 9 59 11 120 4 154 7 152 -143 153 -89 1 -120 -2 -131 -13z"/>
<path d="M412 1178 c-8 -8 -12 -51 -12 -128 0 -99 3 -119 18 -132 14 -12 96
-14 560 -14 526 1 544 2 558 20 19 27 19 223 0 249 -12 16 -51 17 -563 17
-414 0 -552 -3 -561 -12z"/>
<path d="M988 749 c-16 -9 -18 -26 -18 -128 0 -146 0 -146 117 -145 46 0 86 4
90 8 4 4 8 59 8 124 2 149 0 152 -104 152 -42 0 -84 -5 -93 -11z"/>
<path d="M1345 744 c-13 -13 -15 -38 -14 -130 1 -139 3 -141 115 -139 101 2
104 6 104 145 0 135 -4 140 -113 140 -56 0 -80 -4 -92 -16z"/>
<path d="M413 738 c-13 -22 -11 -237 3 -249 19 -15 380 -15 399 1 19 16 22
229 3 248 -17 17 -394 17 -405 0z"/>
</g>
</svg>
